<?xml version="1.0" encoding="UTF-8" standalone="no"?>
<!-- Generator: Adobe Illustrator 13.0.0, SVG Export Plug-In . SVG Version: 6.00 Build 14948)  -->

<svg
   xmlns:dc="http://purl.org/dc/elements/1.1/"
   xmlns:cc="http://creativecommons.org/ns#"
   xmlns:rdf="http://www.w3.org/1999/02/22-rdf-syntax-ns#"
   xmlns:svg="http://www.w3.org/2000/svg"
   xmlns="http://www.w3.org/2000/svg"
   xmlns:xlink="http://www.w3.org/1999/xlink"
   xmlns:sodipodi="http://sodipodi.sourceforge.net/DTD/sodipodi-0.dtd"
   xmlns:inkscape="http://www.inkscape.org/namespaces/inkscape"
   version="1.1"
   id="Layer_1"
   x="0px"
   y="0px"
   width="219.125"
   height="54.126301"
   viewBox="0 0 219.125 54.126301"
   enable-background="new 0 0 264 90"
   xml:space="preserve"
   inkscape:version="0.47 r22583"
   sodipodi:docname="Corsairlogo.svg"><metadata
   id="metadata49"><rdf:RDF><cc:Work
       rdf:about=""><dc:format>image/svg+xml</dc:format><dc:type
         rdf:resource="http://purl.org/dc/dcmitype/StillImage" /></cc:Work></rdf:RDF></metadata><defs
   id="defs47"><inkscape:perspective
   sodipodi:type="inkscape:persp3d"
   inkscape:vp_x="0 : 45 : 1"
   inkscape:vp_y="0 : 1000 : 0"
   inkscape:vp_z="264 : 45 : 1"
   inkscape:persp3d-origin="132 : 30 : 1"
   id="perspective51" />
	<defs
   id="defs5">
		<rect
   height="792"
   width="612"
   y="-347"
   x="-76"
   id="SVGID_1_" />
	</defs>
	<clipPath
   id="SVGID_2_">
		<use
   id="use9"
   overflow="visible"
   xlink:href="#SVGID_1_"
   style="overflow:visible"
   x="0"
   y="0"
   width="264"
   height="90" />
	</clipPath>
	
	
	
	
	
	
	
	
	
	
	
	
	
	
	
	
	
</defs><sodipodi:namedview
   pagecolor="#ffffff"
   bordercolor="#666666"
   borderopacity="1"
   objecttolerance="10"
   gridtolerance="10"
   guidetolerance="10"
   inkscape:pageopacity="0"
   inkscape:pageshadow="2"
   inkscape:window-width="640"
   inkscape:window-height="483"
   id="namedview45"
   showgrid="false"
   inkscape:zoom="2.0454545"
   inkscape:cx="93.13888"
   inkscape:cy="19.174111"
   inkscape:window-x="0"
   inkscape:window-y="0"
   inkscape:window-maximized="0"
   inkscape:current-layer="Layer_1" />
<path
   style="fill:#005373"
   id="path11"
   d="m 103.445,58.633 -0.289,3.756 c -2.326,1.111 -4.164,2.504 -9.766,2.504 -7.922,0 -13.177,-5.009 -13.177,-13.046 0,-8.585 5.939,-12.271 13.177,-12.271 2.6,0 5.18,0.666 7.682,1.251 0.248,0.072 1.047,0.141 1.391,0.141 v 6.812 h -1.313 c -0.49,-4.066 -3.144,-6.534 -7.246,-6.534 -5.209,0 -8.055,4.733 -8.055,10.806 0,5.507 3.326,11.171 9.317,11.171 2.984,0 6.461,-1.596 7.613,-4.59 h 0.666 z"
   clip-path="url(#SVGID_2_)"
   transform="translate(-21.438,-21.936697)" /><path
   style="fill:#005373"
   id="path13"
   d="m 129.55,52.096 c 0,8.172 -4.656,12.797 -12.453,12.797 -8.31,0 -12.449,-4.387 -12.582,-12.867 0.098,-8.107 4.409,-12.45 12.791,-12.45 7.923,0 12.244,4.446 12.244,12.52 m -19.403,-0.7 c 0,8.692 3.229,11.961 7.054,11.961 4.872,0 6.709,-5.143 6.709,-10.256 0,-8.622 -3.233,-12.095 -7.061,-11.997 -3.925,-0.038 -6.702,2.884 -6.702,10.292"
   clip-path="url(#SVGID_2_)"
   transform="translate(-21.438,-21.936697)" /><path
   style="fill:#005373"
   id="path15"
   d="M 132.971,62.354 V 42.115 l -3.403,-0.702 V 40.1 h 11.257 c 5.323,0 8.937,1.563 8.937,6.641 0,3.295 -2.393,5.08 -4.139,6.013 2.895,7.13 5.533,10.853 7.512,11.302 l -0.443,0.935 -7.069,-1.6 c -1.941,-2.956 -3.64,-6.071 -5.138,-9.313 -0.797,0.098 -1.639,0.071 -2.438,0 v 8.276 l 3.586,0.691 v 1.325 h -12.065 v -1.325 l 3.403,-0.691 z m 5.076,-10.019 c 0.56,0.206 1.154,0.275 1.742,0.275 3.019,0 4.901,-1.872 4.901,-4.901 0,-4.581 -2.325,-6.082 -6.155,-6.082 h -0.488 v 10.708 z"
   clip-path="url(#SVGID_2_)"
   transform="translate(-21.438,-21.936697)" /><path
   style="fill:#005373"
   id="path17"
   d="m 168.686,46.982 h -1.252 c -0.238,-3.021 -1.498,-5.879 -4.982,-5.879 -2.177,0 -3.881,1.182 -3.881,3.516 0,6.118 11.508,3.72 11.508,12.655 0,4.414 -3.722,7.618 -8.315,7.618 -2.402,0 -4.894,-0.665 -6.986,-1.883 0,-2.017 -0.036,-4.066 -0.283,-6.047 h 1.429 c 0.387,3.056 1.858,6.394 5.631,6.394 2.715,0 4.348,-1.563 4.348,-4.2 0,-5.152 -11.125,-4.315 -11.125,-12.068 0,-5.01 3.195,-7.513 8.037,-7.513 2.011,0 4.064,0.63 5.871,1.528 v 5.879 z"
   clip-path="url(#SVGID_2_)"
   transform="translate(-21.438,-21.936697)" /><path
   style="fill:#005373"
   id="path19"
   d="m 169.725,64.37 v -1.325 l 2.781,-0.691 8.416,-22.778 h 3.028 l 8.79,22.778 2.78,0.691 v 1.325 h -11.783 v -1.325 l 3.236,-0.691 -2.303,-6.368 h -7.647 l -2.157,6.368 3.243,0.691 v 1.325 h -8.384 z m 7.923,-10.293 h 6.258 l -3.265,-8.418 -2.993,8.418 z"
   clip-path="url(#SVGID_2_)"
   transform="translate(-21.438,-21.936697)" /><polygon
   style="fill:#005373"
   id="polygon21"
   points="196.948,63.045 200.358,62.354 200.358,42.115 196.948,41.413 196.948,40.1 208.84,40.1 208.84,41.413 205.434,42.115 205.434,62.354 208.84,63.045 208.84,64.37 196.948,64.37 "
   clip-path="url(#SVGID_2_)"
   transform="translate(-21.438,-21.936697)" /><path
   style="fill:#005373"
   id="path23"
   d="M 214.09,62.354 V 42.115 l -3.408,-0.702 V 40.1 h 11.258 c 5.326,0 8.937,1.563 8.937,6.641 0,3.295 -2.394,5.08 -4.136,6.013 2.892,7.13 5.533,10.853 7.515,11.302 l -0.445,0.935 -7.07,-1.6 c -1.94,-2.956 -3.647,-6.071 -5.139,-9.313 -0.799,0.098 -1.633,0.071 -2.432,0 v 8.276 l 3.578,0.691 v 1.325 h -12.066 v -1.325 l 3.408,-0.691 z m 5.08,-10.019 c 0.547,0.206 1.145,0.275 1.729,0.275 3.033,0 4.916,-1.872 4.916,-4.901 0,-4.581 -2.34,-6.082 -6.159,-6.082 h -0.486 v 10.708 z"
   clip-path="url(#SVGID_2_)"
   transform="translate(-21.438,-21.936697)" /><path
   style="fill:#005373"
   id="path25"
   d="m 35.286,35.675 c -4.274,-0.208 -9.277,2.605 -10.851,3.567 2.517,2.956 3.254,9.287 3.458,11.933 4.497,-4.55 7.932,-4.792 10.122,-4.261 -0.071,-2.058 -0.398,-7.432 -1.943,-11.091 -0.253,-0.085 -0.513,-0.135 -0.786,-0.148"
   clip-path="url(#SVGID_2_)"
   transform="translate(-21.438,-21.936697)" /><path
   style="fill:#005373"
   id="path27"
   d="m 33.939,51.375 c -5.854,1.43 -9.15,3.482 -10.008,4.074 0.156,1.135 0.235,2.331 0.235,3.573 0,6.466 -1.843,13.865 -2.728,17.041 4.018,-3.191 7.618,-5.532 10.767,-7.001 1.135,-4.99 2.365,-12.141 1.734,-17.687"
   clip-path="url(#SVGID_2_)"
   transform="translate(-21.438,-21.936697)" /><path
   style="fill:#005373"
   id="path29"
   d="m 57.996,67.279 c 1.203,-1.571 2.031,-3.249 2.584,-4.96 -1.561,0.461 -3.35,1.185 -5.41,2.259 1.578,0.74 2.41,1.9 2.826,2.701"
   clip-path="url(#SVGID_2_)"
   transform="translate(-21.438,-21.936697)" /><path
   style="fill:#005373"
   id="path31"
   d="m 47.752,29.448 c -4.783,-0.319 -10.422,2.627 -12.119,3.592 0.451,0.562 0.846,1.23 1.189,1.965 0.122,0.26 0.239,0.53 0.348,0.806 0.129,0.336 0.252,0.677 0.365,1.029 1.133,3.491 1.434,7.691 1.509,9.72 0.395,-0.377 0.783,-0.723 1.175,-1.054 0.167,-0.138 0.33,-0.276 0.491,-0.408 0.164,-0.129 0.323,-0.253 0.484,-0.378 3.038,-2.308 5.912,-3.213 8.585,-2.708 -0.031,-1.58 -0.27,-8.077 -2.027,-12.564"
   clip-path="url(#SVGID_2_)"
   transform="translate(-21.438,-21.936697)" /><path
   style="fill:#005373"
   id="path33"
   d="m 44.955,46.459 c -1.359,0.366 -2.577,0.756 -3.66,1.149 -0.178,0.064 -0.353,0.13 -0.524,0.196 -0.327,0.122 -0.638,0.245 -0.941,0.367 -0.217,0.09 -0.43,0.178 -0.633,0.266 -0.372,0.158 -0.713,0.317 -1.039,0.466 l -0.123,0.06 c -0.617,0.292 -1.14,0.567 -1.583,0.813 -0.583,0.322 -1.018,0.59 -1.313,0.784 -0.095,0.064 -0.181,0.121 -0.247,0.169 0.018,0.136 0.033,0.276 0.049,0.415 0.143,1.144 0.215,2.34 0.215,3.58 0,4.695 -0.875,9.836 -1.756,13.813 -0.045,0.204 -0.091,0.407 -0.136,0.605 -0.049,0.214 -0.1,0.426 -0.145,0.633 -0.391,1.648 -0.759,3.039 -1.033,4.023 4.05,-3.23 7.697,-5.674 10.923,-7.328 1.29,-5.613 2.708,-13.758 1.946,-20.011"
   clip-path="url(#SVGID_2_)"
   transform="translate(-21.438,-21.936697)" /><path
   style="fill:#005373"
   id="path35"
   d="m 50.754,43.323 c -0.21,0.09 0.804,-0.335 0.804,-0.335"
   clip-path="url(#SVGID_2_)"
   transform="translate(-21.438,-21.936697)" /><path
   style="fill:#005373"
   id="path37"
   d="m 64.156,24.439 c -0.924,-1.521 -2.082,-2.349 -3.439,-2.461 -5.423,-0.455 -11.911,2.977 -13.747,4.02 0.574,0.696 1.063,1.547 1.481,2.487 0.08,0.195 0.168,0.394 0.25,0.598 0.082,0.208 0.16,0.421 0.237,0.636 0.933,2.632 1.403,5.71 1.642,8.174 0.126,1.315 0.185,2.455 0.215,3.254 L 51.059,40.9 c 0.179,-0.166 0.355,-0.332 0.529,-0.487 7.62,-6.862 12.31,-4.312 14.394,-3.178 0.137,0.078 0.294,0.161 0.422,0.226 0.056,-0.38 0.1,-1.065 0.1,-1.949 0,-2.914 -0.452,-7.962 -2.348,-11.073"
   clip-path="url(#SVGID_2_)"
   transform="translate(-21.438,-21.936697)" /><path
   style="fill:#005373"
   id="path39"
   d="m 50.754,43.323 c -1.13,0.485 -2.066,0.948 -2.812,1.354 -0.62,0.336 -1.112,0.629 -1.472,0.857 -0.237,0.152 -0.425,0.277 -0.554,0.366 0.016,0.1 0.024,0.203 0.04,0.305 0.168,1.325 0.261,2.721 0.261,4.164 0,5.276 -1,11.061 -1.992,15.509 -0.05,0.223 -0.097,0.443 -0.147,0.658 -0.049,0.223 -0.104,0.435 -0.15,0.648 -0.445,1.884 -0.868,3.462 -1.175,4.54 3.665,-2.922 6.866,-5.131 9.675,-6.778 0.252,-0.146 0.502,-0.294 0.752,-0.434 0.234,-0.133 0.465,-0.264 0.691,-0.39 2.739,-1.493 5.065,-2.418 7.033,-2.941 0.204,-0.055 0.406,-0.104 0.599,-0.148 0.181,-0.043 0.36,-0.083 0.537,-0.116 2.411,-0.485 4.23,-0.327 5.579,0.11 2.366,0.771 3.51,2.379 4.029,3.399 2.971,-3.868 3.947,-8.314 3.947,-12.417 0,-6.234 -2.189,-11.656 -2.765,-12.978 -9.786,0.186 -16.824,2.153 -21.272,3.957"
   clip-path="url(#SVGID_2_)"
   transform="translate(-21.438,-21.936697)" /><path
   style="fill:#005373"
   id="path41"
   d="m 232.757,43.618 v -0.021 c 0,-2.124 1.725,-3.903 3.913,-3.903 2.188,0 3.893,1.758 3.893,3.881 v 0.022 c 0,2.124 -1.725,3.902 -3.914,3.902 -2.188,0 -3.892,-1.757 -3.892,-3.881 m 7.349,-0.021 v -0.022 c 0,-1.908 -1.476,-3.45 -3.437,-3.45 -1.971,0 -3.462,1.563 -3.462,3.472 v 0.021 c 0,1.908 1.478,3.45 3.44,3.45 1.974,-10e-4 3.459,-1.564 3.459,-3.471 m -5.053,-2.189 h 1.842 c 0.562,0 0.994,0.162 1.285,0.453 0.227,0.226 0.344,0.539 0.344,0.906 v 0.022 c 0,0.667 -0.367,1.088 -0.895,1.281 l 1.016,1.489 h -1.069 l -0.885,-1.337 h -0.021 -0.701 v 1.337 h -0.916 v -4.151 z m 1.832,2.027 c 0.465,0 0.711,-0.248 0.711,-0.593 v -0.021 c 0,-0.4 -0.279,-0.604 -0.731,-0.604 h -0.896 v 1.218 h 0.916 z"
   clip-path="url(#SVGID_2_)"
   transform="translate(-21.438,-21.936697)" />
</svg>