<?xml version="1.0" encoding="UTF-8" standalone="no"?>
<!DOCTYPE svg PUBLIC "-//W3C//DTD SVG 1.0//EN" "http://www.w3.org/TR/2001/REC-SVG-20010904/DTD/svg10.dtd">
<!-- Created with Inkscape (http://www.inkscape.org/) -->
<svg
   xmlns:svg="http://www.w3.org/2000/svg"
   xmlns="http://www.w3.org/2000/svg"
   version="1.0"
   width="800"
   height="200"
   id="svg2">
  <defs
     id="defs4" />
  <g
     id="layer1">
    <path
       d="M 112.09855,23.04019 C 86.95026,23.059238 60.076762,32.896748 31.703487,54.140927 C 28.500668,56.473024 26.785544,60.366238 27.240909,64.301875 C 27.696251,68.237512 30.249713,71.619251 33.900448,73.158376 C 37.551205,74.697479 41.749665,74.138353 44.885256,71.71662 C 72.300986,51.189419 95.366292,44.088818 115.94323,45.147116 C 136.52017,46.205414 155.61526,55.542149 174.43733,71.30469 C 177.40532,74.108276 181.69748,75.032121 185.55945,73.707616 C 189.4214,72.383112 192.21431,69.023453 192.83688,64.988425 C 193.45948,60.953398 191.79475,56.911142 188.51162,54.484203 C 167.34717,36.760039 143.68798,24.544428 117.11037,23.1775 C 115.44927,23.09206 113.77509,23.038916 112.09855,23.04019 z M 502.47115,23.04019 C 477.32282,23.059238 450.44936,32.896748 422.07609,54.140927 C 418.87329,56.473024 417.15815,60.366238 417.61351,64.301875 C 418.06887,68.237512 420.62232,71.619251 424.27305,73.158376 C 427.92383,74.697479 432.12227,74.138353 435.25786,71.71662 C 462.67361,51.189419 485.73889,44.088818 506.31583,45.147116 C 526.89273,46.205414 545.98786,55.542149 564.80994,71.30469 C 567.77788,74.108276 572.07008,75.032121 575.93205,73.707616 C 579.79396,72.383112 582.58691,69.023453 583.20949,64.988425 C 583.83204,60.953398 582.16736,56.911142 578.88422,54.484203 C 557.71973,36.760039 534.06058,24.544428 507.48297,23.1775 C 505.82182,23.09206 504.1477,23.038916 502.47115,23.04019 z M 375.87124,27.434113 C 371.86987,27.60295 368.24732,29.957719 366.4655,33.544413 L 306.11771,145.79542 L 245.76992,33.544413 C 243.87151,29.841873 240.04425,27.529571 235.8836,27.571423 C 232.00842,27.613122 228.42179,29.711242 226.47785,33.063827 C 224.53389,36.416413 224.5203,40.527433 226.4092,43.911325 L 296.43735,174.14996 C 298.35097,177.71627 302.07045,179.91698 306.11771,179.91698 C 310.16498,179.91696 313.88445,177.71627 315.79807,174.14996 L 385.82622,43.911325 C 387.82363,40.440082 387.76651,36.144407 385.68891,32.720552 C 383.61131,29.296697 379.87257,27.265299 375.87124,27.434113 z M 696.07839,27.708734 C 692.12063,27.816956 688.52728,30.046432 686.67265,33.544413 L 616.6445,163.78305 C 614.64709,167.25429 614.70421,171.54997 616.78181,174.97382 C 618.85947,178.39765 622.59815,180.42907 626.59948,180.26026 C 630.60078,180.09147 634.2234,177.73665 636.00522,174.14996 L 696.35301,61.898948 L 756.7008,174.14996 C 758.48262,177.73665 762.10519,180.09145 766.10654,180.26026 C 770.10791,180.4291 773.84661,178.39768 775.92421,174.97382 C 778.00175,171.54994 778.05893,167.25429 776.06152,163.78305 L 706.03337,33.544413 C 704.08605,29.872741 700.23344,27.614308 696.07839,27.708734 z M 36.09741,90.734069 C 32.135893,90.678046 28.482807,92.736094 26.485703,96.157817 C 24.488577,99.579537 24.488599,103.85819 26.485703,107.27994 C 28.482785,110.70168 32.135893,112.75971 36.09741,112.70369 L 115.46265,112.70369 C 119.42416,112.75971 123.07725,110.70166 125.07435,107.27994 C 127.07148,103.85821 127.07146,99.579567 125.07435,96.157817 C 123.07727,92.736072 119.42416,90.678046 115.46265,90.734069 L 36.09741,90.734069 z M 499.17571,90.734069 C 495.21419,90.678046 491.56115,92.736094 489.564,96.157817 C 487.56688,99.579537 487.56694,103.85819 489.564,107.27994 C 491.56108,110.70168 495.21424,112.75971 499.17571,112.70369 L 561.10256,112.70369 L 561.72046,134.6733 C 543.90145,148.90287 525.76136,157.3592 506.31583,158.3593 C 485.73889,159.4176 462.67361,152.31697 435.25786,131.78979 C 433.21675,130.2214 430.68972,129.41955 428.11773,129.52417 C 423.45185,129.71443 419.38573,132.81492 418.02544,137.28219 C 416.66515,141.74947 418.30808,146.60711 422.07609,149.36549 C 452.34093,172.02592 480.90531,181.62719 507.48297,180.26026 C 534.06058,178.89333 557.71973,166.74638 578.88422,149.02221 C 581.44658,146.88689 582.80984,143.81677 582.86621,140.71495 C 582.92263,137.61312 582.87197,103.63292 582.86621,101.71888 C 582.8605,99.804837 583.03514,97.858857 582.04235,96.157817 C 580.04525,92.736072 576.39214,90.678046 572.43065,90.734069 L 499.17571,90.734069 z M 695.80377,116.68568 C 687.68791,116.68568 681.04293,123.33065 681.04293,131.44652 C 681.04293,139.56238 687.68791,146.1387 695.80377,146.1387 C 703.91963,146.1387 710.49595,139.56238 710.49595,131.44652 C 710.49595,123.33065 703.91963,116.68568 695.80377,116.68568 z M 37.745131,129.52417 C 33.079246,129.71443 29.01311,132.81492 27.652839,137.28219 C 26.292546,141.74947 27.935456,146.60711 31.703487,149.36549 C 61.968324,172.02592 90.532757,181.62719 117.11037,180.26026 C 143.68798,178.89333 167.34717,166.74638 188.51162,149.02221 C 193.17541,145.1357 193.83986,138.16999 189.95337,133.50617 C 186.06686,128.84237 179.10113,128.24655 174.43733,132.13307 C 155.61526,147.89561 136.52017,157.301 115.94323,158.3593 C 95.366292,159.4176 72.300986,152.31697 44.885256,131.78979 C 42.844147,130.2214 40.317092,129.41955 37.745131,129.52417 z"
       id="path4403"
       style="fill:#224a78;fill-opacity:1;fill-rule:evenodd;stroke:none;stroke-width:10;stroke-linecap:round;stroke-linejoin:miter;stroke-miterlimit:4;stroke-dasharray:none;stroke-opacity:1" />
  </g>
</svg>
