<?xml version="1.0" encoding="utf-8"?>
<!-- Generator: Adobe Illustrator 13.0.0, SVG Export Plug-In . SVG Version: 6.00 Build 14948)  -->
<!DOCTYPE svg PUBLIC "-//W3C//DTD SVG 1.0//EN" "http://www.w3.org/TR/2001/REC-SVG-20010904/DTD/svg10.dtd" [
	<!ENTITY ns_flows "http://ns.adobe.com/Flows/1.0/">
	<!ENTITY ns_extend "http://ns.adobe.com/Extensibility/1.0/">
	<!ENTITY ns_ai "http://ns.adobe.com/AdobeIllustrator/10.0/">
	<!ENTITY ns_graphs "http://ns.adobe.com/Graphs/1.0/">
	<!ENTITY ns_vars "http://ns.adobe.com/Variables/1.0/">
	<!ENTITY ns_imrep "http://ns.adobe.com/ImageReplacement/1.0/">
	<!ENTITY ns_sfw "http://ns.adobe.com/SaveForWeb/1.0/">
	<!ENTITY ns_custom "http://ns.adobe.com/GenericCustomNamespace/1.0/">
	<!ENTITY ns_adobe_xpath "http://ns.adobe.com/XPath/1.0/">
]>
<svg version="1.0"
	 xmlns:x="&ns_extend;" xmlns:i="&ns_ai;" xmlns:graph="&ns_graphs;" i:viewOrigin="-39 112.5" i:rulerOrigin="7050.5 7124.5" i:pageBounds="-7050.5 7275.5 7349.5 -7124.5"
	 xmlns="http://www.w3.org/2000/svg" xmlns:xlink="http://www.w3.org/1999/xlink" xmlns:a="http://ns.adobe.com/AdobeSVGViewerExtensions/3.0/"
	 x="0px" y="0px" width="379.2px" height="76.09px" viewBox="0 0 379.2 76.09" enable-background="new 0 0 379.2 76.09"
	 xml:space="preserve">
<metadata>
	<variableSets  xmlns="&ns_vars;">
		<variableSet  locked="none" varSetName="binding1">
			<variables></variables>
			<v:sampleDataSets  xmlns:v="&ns_vars;" xmlns="&ns_custom;"></v:sampleDataSets>
		</variableSet>
	</variableSets>
</metadata>
<g id="Layer_1" i:layer="yes" i:dimmedPercent="50" i:rgbTrio="#4F008000FFFF">
	<rect fill="#BE0027" width="379.2" height="76.09"/>
	<polyline i:knockout="Off" fill="#FFFFFF" points="78.764,20.873 99.191,20.873 99.191,28.426 87.972,28.426 87.972,33.911 
		97.643,33.911 97.643,41.608 87.972,41.608 87.972,55.08 78.764,55.08 78.764,20.873 	"/>
	<path i:knockout="Off" fill="#FFFFFF" d="M111.062,20.873v21.073c0,3.848,1.203,5.819,4.042,5.819c2.935,0,4.33-1.924,4.33-5.819
		V20.873h8.372v21.408c0,8.372-5.1,13.327-12.75,13.327c-7.746,0-12.413-4.764-12.413-13.327V20.873H111.062"/>
	<path i:knockout="Off" fill="#FFFFFF" d="M315.95,42.05c0,3.898-1.269,5.822-4.222,5.822c-2.859,0-4.207-1.972-4.207-5.822
		l-0.004-8.105c0-3.896,1.256-5.822,4.211-5.822c2.857,0,4.228,1.972,4.228,5.822L315.95,42.05 M311.879,20.281
		c-7.699,0-12.836,4.955-12.836,13.324v8.783c0,8.563,4.701,13.325,12.5,13.325c7.702,0,12.891-4.954,12.891-13.325v-8.783
		C324.434,25.043,319.682,20.281,311.879,20.281z"/>
	<polyline i:knockout="Off" fill="#FFFFFF" points="137.864,55.08 137.864,28.811 130.751,28.811 130.751,20.873 154.513,20.873 
		154.513,28.811 147.239,28.811 147.239,55.08 137.864,55.08 	"/>
	<path i:knockout="Off" fill="#FFFFFF" d="M165.874,20.873v21.073c0,3.848,1.203,5.819,4.042,5.819c2.934,0,4.33-1.924,4.33-5.819
		V20.873h8.371v21.408c0,8.372-5.099,13.327-12.75,13.327c-7.746,0-12.412-4.764-12.412-13.327V20.873H165.874"/>
	<path i:knockout="Off" fill="#FFFFFF" d="M196.355,36.653c4.136,0,6.158-1.06,6.158-4.139c0-2.838-1.781-3.991-5.486-3.991h-2.31
		v8.13H196.355 M186.347,55.08V20.873H197.7c3.61,0,6.351,0.24,8.661,1.875c3.029,2.117,4.617,5.341,4.617,9.574
		c0,5.533-2.887,9.671-7.746,11.019l8.371,11.739h-10.342l-6.544-11.02v11.02H186.347z"/>
	<polyline i:knockout="Off" fill="#FFFFFF" points="214.402,55.08 214.402,20.873 233.344,20.873 233.344,28.426 222.941,28.426 
		222.941,33.96 230.829,33.96 230.829,41.56 222.941,41.56 222.941,47.527 233.344,47.527 233.344,55.08 214.402,55.08 	"/>
	<path i:knockout="Off" fill="#FFFFFF" d="M252.788,43.822c0,0.144,0,0.238,0,0.383c0,2.791,1.058,4.14,3.127,4.14
		c2.021,0,3.224-1.058,3.224-2.84c0-3.128-2.359-3.367-6.109-5.051c-5.1-2.311-7.699-5.63-7.699-9.768
		c0-6.109,4.715-10.487,11.645-10.487c6.157,0,10.391,3.943,10.391,10.056c0,0.192,0,0.336,0,0.529h-7.698
		c0-2.117-1.155-3.321-3.126-3.321c-1.54,0-2.645,1.061-2.645,2.55c0,2.55,2.498,3.079,6.877,5.341
		c4.67,2.406,6.93,5.438,6.93,9.526c0,5.965-4.908,10.874-11.258,10.874c-7.604,0-11.644-3.85-11.644-11.163c0-0.241,0-0.53,0-0.769
		H252.788"/>
	<polyline i:knockout="Off" fill="#FFFFFF" points="287.568,41.993 279.004,41.993 279.004,55.08 270.632,55.08 270.632,20.873 
		279.004,20.873 279.004,33.863 287.568,33.863 287.568,20.873 295.986,20.873 295.986,55.08 287.568,55.08 287.568,41.993 	"/>
	<path i:knockout="Off" fill="#FFFFFF" d="M337.566,36.653c4.139,0,6.16-1.06,6.16-4.139c0-2.838-1.783-3.991-5.486-3.991h-2.213
		v8.13H337.566 M327.561,55.08V20.873h11.352c3.609,0,6.352,0.24,8.658,1.875c3.033,2.117,4.621,5.341,4.621,9.623
		c0,4.426-2.02,8.083-5.437,10.152c-2.166,1.299-4.858,1.537-8.419,1.537h-2.406v11.02H327.561z"/>
	<polyline i:knockout="Off" fill="#FFFFFF" points="24.029,20.873 24.029,56.044 43.914,42.248 43.914,55.921 69.268,38.396 
		44.04,20.873 44.04,34.669 24.029,20.873 	"/>
	<path i:knockout="Off" fill="#FFFFFF" d="M342.173,53.605c0.315,0,0.775,0.048,0.775-0.402c0-0.32-0.273-0.356-0.55-0.356h-0.613
		v0.759H342.173 M343.236,54.879h-0.366l-0.646-1.027h-0.439v1.027h-0.319V52.6h0.995c0.189,0,0.383,0,0.551,0.126
		c0.166,0.095,0.266,0.301,0.262,0.487c0,0.467-0.325,0.628-0.719,0.639L343.236,54.879z M343.975,53.747
		c0-0.948-0.732-1.696-1.697-1.696c-0.957,0-1.702,0.748-1.702,1.696c0,0.964,0.745,1.704,1.702,1.698
		C343.242,55.451,343.975,54.706,343.975,53.747z M340.246,53.743c0-1.121,0.904-2.023,2.031-2.023c1.121,0,2.027,0.902,2.027,2.023
		c0,1.131-0.906,2.032-2.027,2.032C341.15,55.775,340.246,54.874,340.246,53.743z"/>
	<path i:knockout="Off" fill="#FFFFFF" d="M348.309,53.962c-0.02-0.386-0.045-0.854-0.045-1.195h-0.009
		c-0.098,0.32-0.209,0.669-0.348,1.052l-0.49,1.344h-0.271l-0.453-1.319c-0.131-0.394-0.237-0.748-0.315-1.076h-0.008
		c-0.009,0.345-0.029,0.806-0.054,1.225l-0.074,1.187h-0.34l0.193-2.769h0.454l0.474,1.339c0.115,0.342,0.205,0.645,0.279,0.933
		h0.008c0.074-0.278,0.172-0.583,0.297-0.933l0.492-1.339h0.457l0.172,2.769h-0.354L348.309,53.962"/>
	<path i:knockout="Off" fill="#FFFFFF" d="M349.637,54.899c0.09,0.016,0.221,0.016,0.361,0.016c0.764,0.004,1.18-0.427,1.18-1.175
		c0.004-0.661-0.365-1.068-1.123-1.068c-0.185,0-0.324,0.016-0.418,0.037V54.899 M349.273,52.446
		c0.223-0.033,0.481-0.058,0.766-0.058c0.514,0,0.879,0.115,1.122,0.34c0.25,0.227,0.394,0.552,0.394,0.999
		c0,0.452-0.144,0.822-0.398,1.076c-0.262,0.259-0.69,0.399-1.229,0.399c-0.259,0-0.468-0.008-0.654-0.033V52.446z"/>
</g>
</svg>
