<?xml version="1.0" encoding="UTF-8" standalone="no"?>
<!-- Generator: Adobe Illustrator 14.0.0, SVG Export Plug-In . SVG Version: 6.00 Build 43363)  -->

<svg
   xmlns:dc="http://purl.org/dc/elements/1.1/"
   xmlns:cc="http://creativecommons.org/ns#"
   xmlns:rdf="http://www.w3.org/1999/02/22-rdf-syntax-ns#"
   xmlns:svg="http://www.w3.org/2000/svg"
   xmlns="http://www.w3.org/2000/svg"
   xmlns:sodipodi="http://sodipodi.sourceforge.net/DTD/sodipodi-0.dtd"
   xmlns:inkscape="http://www.inkscape.org/namespaces/inkscape"
   version="1.1"
   id="Layer_1"
   x="0px"
   y="0px"
   width="415px"
   height="100px"
   viewBox="0 0 415 100"
   enable-background="new 0 0 415 100"
   xml:space="preserve"
   inkscape:version="0.48.4 r9939"
   sodipodi:docname="20140131191240!MicroStarInternational.svg"><metadata
   id="metadata3029"><rdf:RDF><cc:Work
       rdf:about=""><dc:format>image/svg+xml</dc:format><dc:type
         rdf:resource="http://purl.org/dc/dcmitype/StillImage" /></cc:Work></rdf:RDF></metadata><defs
   id="defs3027" /><sodipodi:namedview
   pagecolor="#ffffff"
   bordercolor="#666666"
   borderopacity="1"
   objecttolerance="10"
   gridtolerance="10"
   guidetolerance="10"
   inkscape:pageopacity="0"
   inkscape:pageshadow="2"
   inkscape:window-width="1920"
   inkscape:window-height="1018"
   id="namedview3025"
   showgrid="false"
   inkscape:zoom="1.6578313"
   inkscape:cx="425.67468"
   inkscape:cy="-21.055019"
   inkscape:window-x="-8"
   inkscape:window-y="-8"
   inkscape:window-maximized="1"
   inkscape:current-layer="g3019" />
<g
   id="g3009">
	<g
   id="g3011">
		<path
   fill-rule="evenodd"
   clip-rule="evenodd"
   fill="#005DAA"
   d="M350.529,98l26.191-72.227c0,0-19.576,0-39.154,3.928L312.807,98    H350.529z M346.064,6.263l-5.027,13.874c19.697-3.934,39.152-3.934,39.152-3.934l5.027-13.869    C385.217,2.334,365.643,2.334,346.064,6.263z"
   id="path3013" />
		<path
   fill-rule="evenodd"
   clip-rule="evenodd"
   fill="#005DAA"
   d="M204.713,94.066c13.301,2.576,27.041,3.934,41.1,3.934h0.004    c22.313,0,31.482-2.219,43.059-8.131c9.861-5.043,16.344-10.393,19.129-19.609c2.387-7.898-0.664-15.352-7.742-20.092    c-7.08-4.742-13.939-6.984-22.084-11.477c-7.123-3.928-11.008-6.887-10.533-11.004c1.002-8.641,10.24-11.484,22.967-11.484l0,0    c12.4,0,24.539,1.123,36.316,3.27l4.789-13.209c-13.303-2.573-27.049-3.929-41.105-3.929l0,0c-22.313,0-31.479,2.22-43.055,8.13    c-9.865,5.043-16.348,10.393-19.133,19.615c-2.387,7.896,0.664,15.346,7.748,20.088c7.074,4.74,13.93,6.984,22.082,11.482    c7.119,3.926,11.008,6.881,10.525,11c-1.002,8.643-10.24,11.475-22.963,11.475h-0.004c-12.396,0-24.535-1.119-36.314-3.27    L204.713,94.066z"
   id="path3015" />
		<path
   fill-rule="evenodd"
   clip-rule="evenodd"
   fill="#005DAA"
   d="M190.357,98l24.281-66.971c1.973-5.43,2.1-15.213-3.354-20.561    c-5.459-5.368-11.959-8.134-23.971-8.134c-12.012-0.004-21.764,3.151-29.602,6.221c-4.213,1.642-10.467,4.849-17.545,9.134    c-0.684-2.714-1.932-5.26-3.926-7.221c-5.461-5.368-11.961-8.134-23.97-8.134C100.254,2.331,90.51,5.486,82.667,8.555    c-4.212,1.642-10.468,4.849-17.545,9.134c-0.683-2.714-1.931-5.26-3.925-7.221c-5.459-5.368-11.957-8.134-23.972-8.134L2.542,98    H40.27l17.342-47.832C60.756,41.49,69.313,33.229,74.008,29.6c5.977-4.613,32.711-11.959,25.429,8.133L77.587,98h37.727h0.002    l17.344-47.842c3.146-8.672,11.699-16.93,16.393-20.559c5.975-4.613,32.711-11.959,25.428,8.133L152.631,98H190.357z"
   id="path3017" />
	</g>
	<g
   id="g3019">
		
		
	<text
   xml:space="preserve"
   style="font-size:52.09545135px;font-style:normal;font-weight:bold;line-height:125%;letter-spacing:0px;word-spacing:0px;fill:#000000;fill-opacity:1;stroke:none;font-family:Sans;-inkscape-font-specification:Sans Bold"
   x="396.76923"
   y="14.432946"
   id="text3799"
   sodipodi:linespacing="125%"><tspan
     sodipodi:role="line"
     id="tspan3801"
     x="396.76923"
     y="14.432946"
     style="font-size:15.62863541px;fill:#005daa;fill-opacity:1">®</tspan></text>
</g>
</g>
</svg>