<?xml version="1.0" encoding="UTF-8" standalone="no"?>
<!-- Created with Inkscape (http://www.inkscape.org/) -->
<svg xmlns:rdf="http://www.w3.org/1999/02/22-rdf-syntax-ns#" xmlns="http://www.w3.org/2000/svg" version="1.1" xmlns:cc="http://creativecommons.org/ns#" xmlns:dc="http://purl.org/dc/elements/1.1/" viewBox="0 0 219.7 58.27">
 <defs></defs>
 <metadata>
  <rdf:RDF>
   <cc:Work rdf:about="">
    <dc:format>image/svg+xml</dc:format>
    <dc:type rdf:resource="http://purl.org/dc/dcmitype/StillImage"/>
    <dc:title/>
   </cc:Work>
  </rdf:RDF>
 </metadata>
 <g transform="translate(-132.09975,-412.52701)">
  <g fill-rule="evenodd" transform="matrix(0.93066261,0,0,0.93066261,16.775648,30.623852)">
   <path d="m146.8,430.1c3.564-6.918,10.69-11.53,18.87-11.53,11.74,0,21.17,9.434,21.17,21.17,0,8.175-4.821,15.3-11.53,18.87,4.822-3.773,7.756-9.643,7.756-16.14,0-11.11-9.014-20.12-20.12-20.12-6.499,0-12.37,2.935-16.14,7.756" fill="#2169b5"/>
   <path d="m177.2,444.6c0,7.126-4.612,13.42-11.32,15.51,4.611-2.516,7.756-7.547,7.756-13.21,0-8.385-6.918-15.09-15.09-15.09-5.66,0-10.69,3.145-13.21,7.546,2.097-6.498,8.176-11.11,15.51-11.11,9.014,0,16.35,7.336,16.35,16.35" fill="#2169b5"/>
   <path d="M69.66,20.75v1.16l3.9,1.18v9.94,7.81,12.5l-3.9,1.16v1.16h14.03v-1.16l-4.47-1.16v-12.5-7.81-10.34c0.78-0.2,1.75-0.19,2.53-0.19,3.51,0,5.28,2.74,5.28,7.03,0,1.37-0.02,2.53-0.41,3.5-1.17,4.1-4.29,4.88-6.24,4.88l-0.57,1c1.17,0.39,2.33,0.56,3.5,0.56,5.07,0,7.99-2.54,9.16-6.44,0.19-1.17,0.41-2.33,0.41-3.5v-0.34l-0.19-0.07v-0.96h0.12c-0.44-5.24-3.5-7.41-8.9-7.41h-14.25zm23.15,7.41c0.03,0.33,0.06,0.67,0.07,1.03l2.9,0.93v2.91,7.81,12.88l-3.09,0.97v0.97h16.41v-10.72h-1.2l-0.8,5.28c-0.4,2.73-1.2,3.31-3.5,3.31h-3.5v-12.69-7.81-2.91l3.1-1v-0.96h-10.39zm85.49-0.6c-4.1,0-7,1.96-8.8,5.47-0.9,1.95-1.5,4.69-1.7,7.81v1.16c0,8.97,3.1,14.25,9.7,14.25,6.7,0,10.4-5.28,10.4-14.25v-1.16c0-3.12-0.6-5.86-1.4-7.81-1.6-3.51-4.3-5.47-8.2-5.47zm-68.1,0.6v0.96l3.1,1v2.91,7.81,12.88l-3.1,0.97v0.97h17v-10.72h-1.2c-0.7,5.46-0.3,8.59-4.2,8.59h-4.1v-11.72l3.6,0.41,0.8,4.47h0.6v-5.85-5.06h-0.6l-0.8,4.47-3.6,0.41v-7.63-2.72h3.5c2.1,0,2.9,0.96,3.3,2.72,0.2,0.98,0.4,2.35,0.6,3.72h0.9v-3.72-4.87h-15.8zm18,0v0.96l2.7,1,1.4,2.91,3.1,7.81,1,1.94-5.9,10.94-2.5,0.97v0.97h7.4v-0.97l-2.9-0.97,4.3-9.94,4.1,9.94-3,0.97v0.97h10.6v-0.97l-2.6-0.97-5.4-12.88-0.6-1.37,3.5-6.44,1.6-2.91,2.5-1v-0.96h-7.2v0.96l2.7,1-1.3,2.91-2.2,5.28-2.3-5.28-1.2-2.91,2.3-1v-0.96h-10.1zm20.1,0v4.87,4.88h0.9l0.8-4.29c0-0.19,0-0.39,0.2-0.59,0.4-1.95,1.2-2.72,2.8-2.72h2.3v2.72,7.81,12.88l-3.3,0.97v0.97h10.9v-0.97l-3.3-0.97v-12.88-7.81-2.72h2.3c1.8,0,2.4,0.77,2.9,2.72v0.59l0.8,4.29h1.2v-4.88-4.87h-18.5zm38.8,0v0.96l3.1,1v2.91,7.81,12.88l-3.1,0.97v0.97h10.1v-0.97l-2.7-0.97v-10.94h1.6l3.7,7.44c1.9,3.9,3.1,5.44,8,5.44h0.8v-0.97c-1.4-0.59-2-1.76-3.2-3.91l-4.8-8.97c0.4-0.19,0.9-0.58,1.5-0.97,1.4-1.17,2.6-3.13,2.6-6.06v-1.75c-0.6-3.71-3.2-4.87-7.1-4.87h-10.5zm-9.2,0.96c1.8,0,3.2,1.57,4.1,3.91,0.8,1.95,1.2,4.69,1.4,7.81v1.16c0,6.83-1.8,12.69-5.5,12.69s-5.4-5.86-5.4-12.69v-1.16c0-3.12,0.4-5.86,1.3-7.81,0.8-2.34,2.2-3.91,4.1-3.91zm16.6,0.6h2.2c1.9,0,2.9,1.17,3.3,3.31,0.2,0.59,0.2,1.38,0.2,2.16,0,3.12-1,4.68-2.6,5.65-0.9,0.39-2.1,0.59-3.1,0.78v-0.78-7.81-3.31z" transform="matrix(1.0745033,0,0,1.0745033,123.91612,410.35618)" fill="#2169b5"/>
   <path d="m177.4,463.7,0,6.289-34.8,0,0-15.93c4.612,7.546,13,12.58,22.64,12.58,4.402,0,8.594-1.048,12.16-2.935zm-45.28-38.99,11.11,0c-2.935,4.402-4.611,9.642-4.611,15.09v30.19h-6.498v-45.28" fill="#2169b5"/>
   <path d="m170.7,459.3c4.821-3.144,7.756-8.595,7.756-14.67,0-9.852-7.756-17.61-17.61-17.61-6.08,0-11.53,2.935-14.67,7.756,2.935-6.499,9.434-11.11,16.98-11.11,10.27,0,18.66,8.384,18.66,18.66,0,7.546-4.611,14.04-11.11,16.98" fill="#2169b5"/>
   <path d="m346.3,441.9c-0.6288,0.6288-0.8388,1.259-0.8388,2.096,0,0.839,0.21,1.468,0.8388,2.097,0.6288,0.4195,1.258,0.8384,2.096,0.8384,0.8388,0,1.468-0.4189,1.886-0.8384,0.6288-0.6289,0.8388-1.258,0.8388-2.097,0-0.8375-0.21-1.468-0.8388-2.096-0.4188-0.6288-1.048-0.8388-1.886-0.8388-0.8388,0-1.468,0.21-2.096,0.8388zm4.402,4.402c-0.63,0.6289-1.468,1.048-2.306,1.048-1.049,0-1.678-0.4195-2.306-1.048-0.8388-0.6289-1.048-1.467-1.048-2.306,0-1.048,0.2088-1.676,1.048-2.305,0.6288-0.8388,1.258-1.049,2.306-1.049,0.8388,0,1.676,0.21,2.306,1.049,0.6288,0.6288,1.048,1.258,1.048,2.305,0,0.839-0.4188,1.677-1.048,2.306zm-1.678-3.564c-0.21-0.21-0.42-0.21-0.8388-0.21h-0.6288v1.259h0.6288,0.6288c0.21,0,0.42-0.21,0.42-0.6288,0-0.21,0-0.42-0.21-0.42zm-0.8388-0.6288c0.6288,0,0.8388,0,1.049,0.21,0.4188,0,0.6288,0.4188,0.6288,0.8388,0,0.4188-0.21,0.6288-0.42,0.8375h-0.4188c0.21,0.21,0.4188,0.21,0.6288,0.42,0,0.21,0.21,0.419,0.21,0.6289v0.2095,0.2095,0.2095h-0.6288v-0.419c0-0.4194-0.21-0.6284-0.42-0.8384h-0.6288-0.6288v1.257h-0.6288v-3.564h1.258" fill="#2169b5"/>
   <path d="m143.8,439.4c0-12.16,9.852-22.22,22.01-22.22,12.37,0,22.22,10.06,22.22,22.22,0,12.37-9.852,22.22-22.22,22.22-12.16,0-22.01-9.853-22.01-22.22zm0,14.04,0,16.35-3.983,0,0-30.4c0-14.88,11.95-26.83,26.62-26.83,14.88,0,26.83,11.95,26.83,26.83,0,14.67-11.95,26.83-26.83,26.83-9.643,0-17.82-5.031-22.64-12.79" fill="#2d9a9c"/>
   <path d="m143.8,439.4c0-12.16,9.852-22.22,22.01-22.22,12.37,0,22.22,10.06,22.22,22.22,0,12.37-9.852,22.22-22.22,22.22-12.16,0-22.01-9.853-22.01-22.22zm0,14.04,0,16.35-3.983,0,0-30.4c0-14.88,11.95-26.83,26.62-26.83,14.88,0,26.83,11.95,26.83,26.83,0,14.67-11.95,26.83-26.83,26.83-9.643,0-17.82-5.031-22.64-12.79" fill="#2d9a9c"/>
  </g>
 </g>
</svg>
