<?xml version="1.0" encoding="UTF-8" standalone="no"?>
<!-- Created with Inkscape (http://www.inkscape.org/) -->
<svg
   xmlns:svg="http://www.w3.org/2000/svg"
   xmlns="http://www.w3.org/2000/svg"
   version="1.0"
   width="200"
   height="28.496429"
   id="svg2870">
  <defs
     id="defs2872">
    <clipPath
       id="clipPath3582">
      <path
         d="M 0.059998,793.74 L 609.54,793.74 L 609.54,0.06 L 0.059998,0.06 L 0.059998,793.74 z"
         id="path3584" />
    </clipPath>
    <clipPath
       id="clipPath3576">
      <path
         d="M -0.224,793.35 L 609.224,793.35 L 609.224,-0.35 L -0.224,-0.35 L -0.224,793.35 z"
         id="path3578" />
    </clipPath>
    <clipPath
       id="clipPath3570">
      <path
         d="M -580.287,793.35 L 178.358,793.35 L 178.358,401.393 L -580.287,401.393 L -580.287,793.35 z"
         id="path3572" />
    </clipPath>
    <clipPath
       id="clipPath3564">
      <path
         d="M -610.96,793.389 L -610.96,43.232 L 166.365,43.232 L 166.365,793.389"
         id="path3566" />
    </clipPath>
    <clipPath
       id="clipPath3124">
      <path
         d="M 0,793.8 L 609.6,793.8 L 609.6,0 L 0,0 L 0,793.8 z"
         id="path3126" />
    </clipPath>
    <clipPath
       id="clipPath3118">
      <path
         d="M 0,794 L 609,794 L 609,0 L 0,0 L 0,794 z"
         id="path3120" />
    </clipPath>
    <clipPath
       id="clipPath3112">
      <path
         d="M 38.13,744.07 L 137.93,744.07 L 137.93,702.29 L 38.13,702.29 L 38.13,744.07 z"
         id="path3114" />
    </clipPath>
  </defs>
  <g
     transform="translate(-213.95415,-177.91443)"
     id="layer1">
    <g
       transform="matrix(1.4969829,0,0,-1.4969829,159.90865,1290.3165)"
       id="g3560">
      <g
         clip-path="url(#clipPath3564)"
         id="g3562">
        <g
           clip-path="url(#clipPath3570)"
           id="g3568">
          <g
             clip-path="url(#clipPath3576)"
             id="g3574">
            <g
               clip-path="url(#clipPath3582)"
               id="g3580">
              <g
                 transform="translate(82.824,735.766)"
                 id="g3586">
                <path
                   d="M 0,0 L -11.178,0 L -11.178,6.504 L -16.959,6.504 L -16.959,-10.507 L -11.178,-10.507 L -11.178,-3.673 L 0,-3.673 L 0,-10.507 L 5.78,-10.507 L 5.78,6.504 L 0,6.504 L 0,0"
                   id="path3588"
                   style="fill:#ed1a3a;fill-opacity:1;fill-rule:nonzero;stroke:none" />
              </g>
              <g
                 transform="translate(98.252,732.093)"
                 id="g3590">
                <path
                   d="M 0,0 L 4.025,6.606 L 7.924,0 L 0,0 M 1.781,10.177 L -8.578,-6.834 L -4.162,-6.834 L -2.043,-3.355 L 9.904,-3.355 L 11.961,-6.834 L 19.016,-6.834 L 8.65,10.177 L 1.781,10.177"
                   id="path3592"
                   style="fill:#ed1a3a;fill-opacity:1;fill-rule:nonzero;stroke:none" />
              </g>
              <g
                 transform="translate(140.188,734.898)"
                 id="g3594">
                <path
                   d="M 0,0 C 1.378,1.804 1.191,4.442 -1.45,5.957 C -3.915,7.37 -8.616,7.89 -11.551,7.89 C -16.252,7.89 -19.276,7.569 -21.848,7.131 L -21.848,-9.639 L -16.071,-9.639 L -16.071,4.587 C -13.991,4.997 -11.879,5.007 -11.09,4.971 C -8.795,4.869 -7.506,4.513 -6.473,3.779 C -5.409,3.021 -5.118,1.339 -6.502,0.173 C -7.54,-0.698 -9.641,-1.381 -14.338,-0.664 L -15,-1.754 L -6.12,-9.639 L 1.75,-9.639 L -6.153,-2.805 C -4.254,-2.559 -1.376,-1.799 0,0"
                   id="path3596"
                   style="fill:#ed1a3a;fill-opacity:1;fill-rule:nonzero;stroke:none" />
              </g>
              <g
                 transform="translate(53.199,736.391)"
                 id="g3598">
                <path
                   d="M 0,0 C -3.334,0.646 -6.17,1.051 -6.17,2.132 C -6.17,3.332 -3.875,3.641 -0.627,3.296 C 2.444,2.97 5.342,2.167 8.045,1.017 L 10.096,4.383 C 7.912,5.216 3.41,6.281 -0.676,6.401 C -5.152,6.534 -12.709,6.13 -13.037,1.602 C -13.336,-2.543 -7.431,-3.532 -3.56,-4.433 C 0.215,-5.312 3.76,-5.629 3.76,-6.938 C 3.76,-7.857 2.51,-8.576 -0.791,-8.327 C -4.761,-8.03 -8.144,-6.945 -11.519,-5.268 L -13.756,-8.948 C -10.015,-10.409 -5.111,-11.584 -0.693,-11.657 C 4.559,-11.744 10.494,-10.896 10.625,-6.397 C 10.739,-2.643 6.846,-1.329 0,0"
                   id="path3600"
                   style="fill:#ed1a3a;fill-opacity:1;fill-rule:nonzero;stroke:none" />
              </g>
              <g
                 transform="translate(158.857,735.035)"
                 id="g3602">
                <path
                   d="M 0,0 C -0.994,-0.815 -2.453,-1.107 -4.757,-1.099 C -6.455,-1.094 -8.213,-0.783 -9.642,-0.457 L -9.642,4.449 C -7.562,4.859 -5.412,4.867 -4.623,4.833 C -2.318,4.736 -0.974,4.345 0.028,3.641 C 1.065,2.912 1.414,1.159 0,0 M 5.053,5.819 C 2.7,7.21 -1.707,7.752 -5.086,7.752 C -9.787,7.752 -12.845,7.432 -15.419,6.994 L -15.419,-9.777 L -9.642,-9.777 L -9.642,-3.632 C -7.857,-3.932 -5.617,-4.106 -3.683,-4.091 C 1.045,-4.051 4.559,-2.939 6.159,-1.2 C 8.436,1.278 7.672,4.269 5.053,5.819"
                   id="path3604"
                   style="fill:#ed1a3a;fill-opacity:1;fill-rule:nonzero;stroke:none" />
              </g>
            </g>
          </g>
        </g>
      </g>
    </g>
  </g>
</svg>
